# xmcd
#
# Track frame offsets: 
#        150
#        17478
#        31205
#        52984
#        64704
#        76433
#        97357
#        113077
#        126831
#        143674
#
# Disc length: 2101 seconds
#
# Revision: 3
# Processed by: cddbd v1.5.2PL0 Copyright (c) Steve Scherf et al.
# Submitted via: ExactAudioCopy v0.99pb5
#
DISCID=7f08330a
DTITLE=Александр Серов - Бесконечная любовь
DYEAR=2007
DGENRE=Pop
TTITLE0=Бесконечная любовь
TTITLE1=Капель
TTITLE2=Дождливый вечер
TTITLE3=Воскресенье
TTITLE4=Ночным Белградом
TTITLE5=Джеймс Бонд
TTITLE6=Осенний свет
TTITLE7=Я не верю
TTITLE8=Ты
TTITLE9=Put' Soldata
EXTD=
EXTT0=
EXTT1=
EXTT2=
EXTT3=
EXTT4=
EXTT5=
EXTT6=
EXTT7=
EXTT8=
EXTT9=
PLAYORDER=
